<?xml version="1.0" standalone="no"?>
<!DOCTYPE svg PUBLIC "-//W3C//DTD SVG 20010904//EN"
 "http://www.w3.org/TR/2001/REC-SVG-20010904/DTD/svg10.dtd">
<svg version="1.0" xmlns="http://www.w3.org/2000/svg"
 width="260.000000pt" height="260.000000pt" viewBox="0 0 260.000000 260.000000"
 preserveAspectRatio="xMidYMid meet">
<metadata>
Created by potrace 1.11, written by Peter Selinger 2001-2013
</metadata>
<g transform="translate(0.000000,260.000000) scale(0.100000,-0.100000)"
fill="#000000" stroke="none">
<path d="M1177 2389 c-168 -18 -342 -80 -489 -174 -102 -66 -262 -230 -326
-334 -226 -368 -221 -822 13 -1181 110 -168 318 -339 506 -414 233 -94 521
-102 756 -22 304 103 561 347 672 636 88 228 95 518 17 746 -118 348 -403 617
-751 710 -81 21 -250 45 -300 42 -11 0 -55 -4 -98 -9z"/>
</g>
</svg>
